<svg xmlns="http://www.w3.org/2000/svg" width="361" height="381" viewBox="0 0 361 381" version="1.1"><path d="M 162.750 30.706 C 163.988 30.944, 166.012 30.944, 167.250 30.706 C 168.488 30.467, 167.475 30.272, 165 30.272 C 162.525 30.272, 161.512 30.467, 162.750 30.706 M 193.750 30.706 C 194.988 30.944, 197.012 30.944, 198.250 30.706 C 199.488 30.467, 198.475 30.272, 196 30.272 C 193.525 30.272, 192.512 30.467, 193.750 30.706 M 168 36.135 C 173.786 37.057, 187.214 37.057, 193 36.135 C 195.745 35.698, 190.872 35.418, 180.500 35.418 C 170.128 35.418, 165.255 35.698, 168 36.135 M 157.500 37 C 158.600 37.473, 161.075 37.838, 163 37.811 L 166.500 37.763 163.500 37 C 161.850 36.580, 159.375 36.215, 158 36.189 C 155.732 36.145, 155.685 36.220, 157.500 37 M 197.500 37 L 194.500 37.763 197.500 37.811 C 199.150 37.838, 201.400 37.473, 202.500 37 L 204.500 36.141 202.500 36.189 C 201.400 36.215, 199.150 36.580, 197.500 37 M 151.500 38 C 152.600 38.473, 154.400 38.859, 155.500 38.859 L 157.500 38.859 155.500 38 C 154.400 37.527, 152.600 37.141, 151.500 37.141 L 149.500 37.141 151.500 38 M 205.500 38 L 203.500 38.859 205.500 38.859 C 206.600 38.859, 208.400 38.473, 209.500 38 L 211.500 37.141 209.500 37.141 C 208.400 37.141, 206.600 37.527, 205.500 38 M 146 39 C 146.825 39.533, 148.400 39.945, 149.500 39.914 L 151.500 39.859 149.500 39 C 148.400 38.527, 146.825 38.116, 146 38.086 C 144.667 38.037, 144.667 38.138, 146 39 M 142 40 C 142.825 40.533, 144.175 40.969, 145 40.969 C 146.333 40.969, 146.333 40.862, 145 40 C 144.175 39.467, 142.825 39.031, 142 39.031 C 140.667 39.031, 140.667 39.138, 142 40 M 216 40 C 214.667 40.862, 214.667 40.969, 216 40.969 C 216.825 40.969, 218.175 40.533, 219 40 C 220.333 39.138, 220.333 39.031, 219 39.031 C 218.175 39.031, 216.825 39.467, 216 40 M 104.750 47.064 C 101.588 48.696, 99 50.256, 99 50.530 C 99 50.977, 110.900 45.312, 111.917 44.381 C 113.226 43.183, 109.745 44.486, 104.750 47.064 M 106.713 52.083 C 103.530 53.726, 101.194 55.504, 101.522 56.035 C 101.850 56.566, 102.343 57, 102.618 57 C 102.893 57, 102.821 56.520, 102.459 55.933 C 102.096 55.346, 102.407 54.950, 103.150 55.052 C 105.816 55.418, 107.106 54.981, 106.459 53.933 C 106.096 53.346, 106.407 52.985, 107.150 53.129 C 109.450 53.577, 113.072 51.926, 112.350 50.758 C 111.911 50.046, 112.275 49.892, 113.388 50.319 C 114.407 50.710, 114.856 50.576, 114.493 49.989 C 113.640 48.609, 113.230 48.719, 106.713 52.083 M 246.507 49.989 C 246.144 50.576, 246.593 50.710, 247.612 50.319 C 248.769 49.875, 249.095 50.038, 248.612 50.819 C 248.130 51.599, 248.456 51.762, 249.612 51.319 C 250.769 50.875, 251.095 51.038, 250.612 51.819 C 250.130 52.599, 250.456 52.762, 251.612 52.319 C 252.769 51.875, 253.095 52.038, 252.612 52.819 C 252.130 53.599, 252.456 53.762, 253.612 53.319 C 254.868 52.836, 255.109 53.015, 254.510 53.985 C 253.965 54.866, 254.077 55.070, 254.845 54.595 C 256.582 53.523, 256.339 53.214, 252.040 51.020 C 247.479 48.693, 247.325 48.665, 246.507 49.989 M 260.531 56.950 C 259.862 58.032, 263.418 60.249, 264.341 59.325 C 265.434 58.232, 263.970 57.074, 262.304 57.714 C 261.213 58.132, 260.912 57.952, 261.395 57.170 C 261.793 56.526, 261.893 56, 261.618 56 C 261.343 56, 260.854 56.427, 260.531 56.950 M 95.708 58.144 C 94.745 58.682, 94.266 59.622, 94.643 60.231 C 95.083 60.944, 94.745 61.116, 93.696 60.714 C 92.030 60.074, 90.566 61.232, 91.659 62.325 C 92.671 63.338, 96.105 60.979, 95.364 59.780 C 94.916 59.054, 95.247 58.881, 96.304 59.286 C 97.202 59.631, 98.183 59.513, 98.484 59.025 C 99.354 57.619, 97.626 57.070, 95.708 58.144 M 81.500 61.588 L 78.500 64.165 81.750 62.015 C 83.537 60.832, 85 59.669, 85 59.432 C 85 58.683, 84.577 58.944, 81.500 61.588 M 276 59.364 C 276 59.639, 277.350 60.825, 279 62 C 280.650 63.175, 282 63.911, 282 63.636 C 282 63.361, 280.650 62.175, 279 61 C 277.350 59.825, 276 59.089, 276 59.364 M 268.401 61.526 C 268.661 63.296, 275.453 68.213, 276.371 67.296 C 277.413 66.254, 274.938 64.087, 273.386 64.682 C 272.479 65.030, 272.029 64.721, 272.209 63.873 C 272.390 63.020, 271.799 62.620, 270.650 62.817 C 269.613 62.994, 269.071 62.695, 269.416 62.136 C 269.755 61.587, 269.615 60.880, 269.104 60.564 C 268.593 60.249, 268.277 60.681, 268.401 61.526 M 85.065 65.422 C 84.378 66.250, 84.285 67.058, 84.838 67.400 C 85.353 67.718, 86.296 67.348, 86.935 66.578 C 87.622 65.750, 87.715 64.942, 87.162 64.600 C 86.647 64.282, 85.704 64.652, 85.065 65.422 M 284 65.194 C 284 65.392, 286.813 67.990, 290.250 70.966 C 293.688 73.943, 295.375 75.123, 294 73.589 C 291.508 70.810, 284 64.506, 284 65.194 M 81.065 68.422 C 80.378 69.250, 80.285 70.058, 80.838 70.400 C 81.353 70.718, 82.296 70.348, 82.935 69.578 C 83.622 68.750, 83.715 67.942, 83.162 67.600 C 82.647 67.282, 81.704 67.652, 81.065 68.422 M 277.600 67.838 C 277.282 68.353, 277.652 69.296, 278.422 69.935 C 279.250 70.622, 280.058 70.715, 280.400 70.162 C 280.718 69.647, 280.348 68.704, 279.578 68.065 C 278.750 67.378, 277.942 67.285, 277.600 67.838 M 76.569 71.924 C 75.634 72.957, 75.289 74.061, 75.801 74.377 C 76.314 74.694, 77.497 74.108, 78.431 73.076 C 79.366 72.043, 79.711 70.939, 79.199 70.623 C 78.686 70.306, 77.503 70.892, 76.569 71.924 M 282.399 71.510 C 282.688 73.485, 284.568 75.319, 286.609 75.619 C 287.757 75.787, 287.409 74.993, 285.432 72.929 C 282.185 69.540, 282.104 69.502, 282.399 71.510 M 61.437 78.250 L 58.500 81.500 61.750 78.563 C 63.538 76.948, 65 75.485, 65 75.313 C 65 74.540, 64.175 75.221, 61.437 78.250 M 64.073 83.427 C 59.517 88.006, 56.208 92.010, 56.718 92.326 C 57.228 92.641, 61.372 89.152, 65.927 84.573 C 70.483 79.994, 73.792 75.990, 73.282 75.674 C 72.772 75.359, 68.628 78.848, 64.073 83.427 M 64.477 84.250 L 56.500 92.500 64.750 84.523 C 69.287 80.136, 73 76.424, 73 76.273 C 73 75.544, 71.885 76.588, 64.477 84.250 M 288.606 76.828 C 287.919 77.941, 299.486 89.307, 301.626 89.621 C 302.556 89.758, 300.220 86.749, 296.435 82.935 C 288.873 75.314, 289.324 75.666, 288.606 76.828 M 294.500 83 C 297.766 86.300, 300.662 89, 300.937 89 C 301.212 89, 298.766 86.300, 295.500 83 C 292.234 79.700, 289.338 77, 289.063 77 C 288.788 77, 291.234 79.700, 294.500 83 M 304 84.313 C 304 84.485, 305.462 85.948, 307.250 87.563 L 310.500 90.500 307.563 87.250 C 304.825 84.221, 304 83.540, 304 84.313 M 303.570 92.887 C 302.923 93.933, 305.555 96.317, 307.707 96.633 C 308.763 96.788, 308.532 96.131, 306.931 94.427 C 304.357 91.686, 304.322 91.670, 303.570 92.887 M 53.569 94.924 C 52.634 95.957, 52.289 97.061, 52.801 97.377 C 53.314 97.694, 54.497 97.108, 55.431 96.076 C 56.366 95.043, 56.711 93.939, 56.199 93.623 C 55.686 93.306, 54.503 93.892, 53.569 94.924 M 50.074 99.411 C 49.273 100.376, 49.235 101.027, 49.951 101.470 C 50.528 101.826, 51.034 101.979, 51.077 101.809 C 51.525 99.996, 51.765 98, 51.534 98 C 51.375 98, 50.718 98.635, 50.074 99.411 M 307.859 99.259 C 308.475 99.875, 309.718 100.488, 310.621 100.621 C 311.832 100.798, 311.968 100.568, 311.141 99.741 C 310.525 99.125, 309.282 98.512, 308.379 98.379 C 307.168 98.202, 307.032 98.432, 307.859 99.259 M 47.065 103.422 C 46.378 104.250, 46.285 105.058, 46.838 105.400 C 47.353 105.718, 48.296 105.348, 48.935 104.578 C 49.622 103.750, 49.715 102.942, 49.162 102.600 C 48.647 102.282, 47.704 102.652, 47.065 103.422 M 313.600 105.838 C 312.907 106.959, 313.551 107.410, 315.373 107.078 C 315.853 106.990, 315.985 107.597, 315.666 108.427 C 315.023 110.103, 316.536 111.560, 317.426 110.120 C 317.736 109.619, 317.163 108.188, 316.154 106.942 C 314.897 105.389, 314.092 105.041, 313.600 105.838 M 42.047 110.911 C 41.391 112.137, 41.354 113.100, 41.947 113.467 C 42.471 113.791, 43.373 113.171, 43.953 112.089 C 44.609 110.863, 44.646 109.900, 44.053 109.533 C 43.529 109.209, 42.627 109.829, 42.047 110.911 M 319.498 115.003 C 318.928 115.926, 319.079 116.069, 320.015 115.490 C 320.961 114.906, 321.168 115.121, 320.739 116.239 C 319.905 118.412, 322.391 121.794, 323.502 119.997 C 324.072 119.074, 323.921 118.931, 322.985 119.510 C 322.039 120.094, 321.832 119.879, 322.261 118.761 C 323.095 116.588, 320.609 113.206, 319.498 115.003 M 33.939 125.119 C 32.368 128.200, 32.125 129.523, 32.978 130.369 C 33.830 131.214, 33.934 131.016, 33.389 129.586 C 32.884 128.259, 33.015 127.891, 33.819 128.388 C 34.599 128.870, 34.762 128.544, 34.319 127.388 C 33.875 126.231, 34.038 125.905, 34.819 126.388 C 35.599 126.870, 35.762 126.544, 35.319 125.388 C 34.875 124.231, 35.038 123.905, 35.819 124.388 C 36.599 124.870, 36.762 124.544, 36.319 123.388 C 35.836 122.132, 36.015 121.891, 36.985 122.490 C 37.866 123.035, 38.070 122.923, 37.595 122.155 C 36.518 120.412, 36.215 120.657, 33.939 125.119 M 145.350 124.530 C 145.022 125.386, 145.034 126.367, 145.376 126.710 C 145.719 127.053, 146 126.583, 146 125.667 C 146 124.143, 148.962 124, 180.427 124 C 210.352 124, 214.915 124.199, 215.325 125.520 C 215.655 126.582, 215.748 126.507, 215.635 125.270 C 215.484 123.619, 213.128 123.482, 180.710 123.237 C 150.017 123.005, 145.877 123.156, 145.350 124.530 M 29.162 135.543 C 28.318 137.397, 28.282 138.621, 29.037 139.820 C 29.900 141.189, 29.974 141.061, 29.441 139.125 C 29.032 137.644, 29.163 136.983, 29.788 137.369 C 31.071 138.162, 32.349 134.949, 31.206 133.806 C 30.726 133.326, 29.823 134.094, 29.162 135.543 M 149.306 135.598 L 146.500 138.195 149.385 136.098 C 151.799 134.342, 153.716 134, 161.135 134 L 170 134 170 164.300 C 170 187.126, 169.692 194.946, 168.750 196.002 C 167.687 197.194, 167.761 197.206, 169.250 196.079 C 170.850 194.868, 171 192.114, 171 163.878 L 171 133 161.556 133 C 152.774 133, 151.915 133.182, 149.306 135.598 M 190 163.878 C 190 192.114, 190.150 194.868, 191.750 196.079 C 193.239 197.206, 193.313 197.194, 192.250 196.002 C 191.308 194.946, 191 187.126, 191 164.300 L 191 134 199.865 134 C 207.284 134, 209.201 134.342, 211.615 136.098 L 214.500 138.195 211.694 135.598 C 209.085 133.182, 208.226 133, 199.444 133 L 190 133 190 163.878 M 337.500 158 C 337.125 159.183, 337.042 160.376, 337.317 160.651 C 337.592 160.926, 338.125 160.183, 338.500 159 C 338.875 157.817, 338.958 156.624, 338.683 156.349 C 338.408 156.074, 337.875 156.817, 337.500 158 M 20.031 165 C 20.031 165.825, 20.467 167.175, 21 168 C 21.862 169.333, 21.969 169.333, 21.969 168 C 21.969 167.175, 21.533 165.825, 21 165 C 20.138 163.667, 20.031 163.667, 20.031 165 M 339.571 166.571 C 339.204 168.037, 339.128 169.461, 339.403 169.736 C 339.678 170.011, 340.204 169.037, 340.571 167.571 C 340.939 166.106, 341.015 164.682, 340.740 164.407 C 340.465 164.132, 339.939 165.106, 339.571 166.571 M 19.141 170.500 C 19.141 171.600, 19.527 173.400, 20 174.500 L 20.859 176.500 20.859 174.500 C 20.859 173.400, 20.473 171.600, 20 170.500 L 19.141 168.500 19.141 170.500 M 340.720 171.332 C 340.324 172.339, 340.029 174.139, 340.063 175.332 C 340.124 177.389, 340.177 177.375, 341.101 175.062 C 341.636 173.722, 341.932 171.922, 341.758 171.062 C 341.497 169.777, 341.313 169.825, 340.720 171.332 M 18.199 177.500 C 18.199 179.150, 18.560 181.625, 19 183 C 19.778 185.431, 19.801 185.417, 19.801 182.500 C 19.801 180.850, 19.440 178.375, 19 177 C 18.222 174.569, 18.199 174.583, 18.199 177.500 M 341.500 181 C 341.112 183.820, 341.020 186.353, 341.295 186.628 C 341.570 186.903, 342.112 184.820, 342.500 182 C 342.888 179.180, 342.980 176.647, 342.705 176.372 C 342.430 176.097, 341.888 178.180, 341.500 181 M 12.272 185 C 12.272 187.475, 12.467 188.488, 12.706 187.250 C 12.944 186.012, 12.944 183.988, 12.706 182.750 C 12.467 181.512, 12.272 182.525, 12.272 185 M 348.300 188 C 348.300 191.025, 348.487 192.262, 348.716 190.750 C 348.945 189.238, 348.945 186.762, 348.716 185.250 C 348.487 183.738, 348.300 184.975, 348.300 188 M 17.272 198 C 17.272 210.747, 17.326 211.123, 18.253 204.750 C 18.894 200.336, 18.894 195.664, 18.253 191.250 C 17.326 184.877, 17.272 185.253, 17.272 198 M 343.378 198 C 343.378 204.325, 343.541 206.912, 343.739 203.750 C 343.937 200.588, 343.937 195.412, 343.739 192.250 C 343.541 189.088, 343.378 191.675, 343.378 198 M 160.374 198.467 C 160.065 199.274, 160.043 200.511, 160.327 201.217 C 160.610 201.923, 160.878 201.516, 160.921 200.313 C 160.982 198.617, 161.729 198.036, 164.250 197.723 L 167.500 197.320 164.219 197.160 C 162.141 197.059, 160.731 197.538, 160.374 198.467 M 195.250 197.689 C 196.213 197.941, 197.787 197.941, 198.750 197.689 C 199.713 197.438, 198.925 197.232, 197 197.232 C 195.075 197.232, 194.287 197.438, 195.250 197.689 M 348.300 208 C 348.300 211.025, 348.487 212.262, 348.716 210.750 C 348.945 209.238, 348.945 206.762, 348.716 205.250 C 348.487 203.738, 348.300 204.975, 348.300 208 M 12.272 211 C 12.272 213.475, 12.467 214.488, 12.706 213.250 C 12.944 212.012, 12.944 209.988, 12.706 208.750 C 12.467 207.512, 12.272 208.525, 12.272 211 M 341.237 211.500 C 341.237 213.150, 341.580 215.850, 342 217.500 L 342.763 220.500 342.763 217.500 C 342.763 215.850, 342.420 213.150, 342 211.500 L 341.237 208.500 341.237 211.500 M 18.455 215.455 C 18.072 218.005, 18.005 220.338, 18.305 220.638 C 18.605 220.938, 19.163 219.096, 19.545 216.545 C 19.928 213.995, 19.995 211.662, 19.695 211.362 C 19.395 211.062, 18.837 212.904, 18.455 215.455 M 104.728 215.722 C 106.503 215.943, 109.653 215.946, 111.728 215.730 C 113.802 215.513, 112.350 215.333, 108.500 215.328 C 104.650 215.324, 102.952 215.501, 104.728 215.722 M 152.750 217.747 C 159.488 217.920, 170.512 217.920, 177.250 217.747 C 183.988 217.574, 178.475 217.432, 165 217.432 C 151.525 217.432, 146.012 217.574, 152.750 217.747 M 200.651 217.750 C 200.394 218.162, 204.080 218.380, 208.842 218.232 C 224.115 217.760, 225.830 217.354, 213.309 217.175 C 206.604 217.079, 200.908 217.338, 200.651 217.750 M 248.750 217.747 C 255.488 217.920, 266.512 217.920, 273.250 217.747 C 279.988 217.574, 274.475 217.432, 261 217.432 C 247.525 217.432, 242.012 217.574, 248.750 217.747 M 85.951 223.097 C 84.801 225.350, 84.032 227.365, 84.242 227.575 C 84.451 227.785, 85.602 225.941, 86.798 223.478 C 89.524 217.869, 88.787 217.537, 85.951 223.097 M 340.115 221 C 340.069 222.375, 340.467 224.175, 341 225 C 341.862 226.333, 341.960 226.333, 341.885 225 C 341.839 224.175, 341.440 222.375, 341 221 L 340.199 218.500 340.115 221 M 19.500 223 C 19.120 224.729, 19.035 226.368, 19.310 226.643 C 19.585 226.918, 20.120 225.729, 20.500 224 C 20.880 222.271, 20.965 220.632, 20.690 220.357 C 20.415 220.082, 19.880 221.271, 19.500 223 M 140.272 224 C 140.272 226.475, 140.467 227.488, 140.706 226.250 C 140.944 225.012, 140.944 222.988, 140.706 221.750 C 140.467 220.512, 140.272 221.525, 140.272 224 M 236.286 224.500 C 236.294 227.250, 236.488 228.256, 236.718 226.736 C 236.947 225.216, 236.941 222.966, 236.704 221.736 C 236.467 220.506, 236.279 221.750, 236.286 224.500 M 103.728 222.722 C 105.503 222.943, 108.653 222.946, 110.728 222.730 C 112.802 222.513, 111.350 222.333, 107.500 222.328 C 103.650 222.324, 101.952 222.501, 103.728 222.722 M 165.629 223.791 C 165.360 224.226, 166.796 224.418, 168.820 224.219 C 174.354 223.672, 175.013 223.168, 170.309 223.079 C 168.004 223.036, 165.898 223.356, 165.629 223.791 M 201.272 227 C 201.272 229.475, 201.467 230.488, 201.706 229.250 C 201.944 228.012, 201.944 225.988, 201.706 224.750 C 201.467 223.512, 201.272 224.525, 201.272 227 M 261.629 223.791 C 261.360 224.226, 262.796 224.418, 264.820 224.219 C 270.354 223.672, 271.013 223.168, 266.309 223.079 C 264.004 223.036, 261.898 223.356, 261.629 223.791 M 175.642 225 C 176.271 225.825, 177.006 227.400, 177.276 228.500 C 177.743 230.400, 177.774 230.393, 177.884 228.372 C 177.948 227.202, 177.213 225.627, 176.250 224.872 C 174.728 223.679, 174.649 223.695, 175.642 225 M 224.360 233 C 224.360 238.225, 224.529 240.363, 224.735 237.750 C 224.941 235.137, 224.941 230.863, 224.735 228.250 C 224.529 225.637, 224.360 227.775, 224.360 233 M 271.642 225 C 272.271 225.825, 273.006 227.400, 273.276 228.500 C 273.743 230.400, 273.774 230.393, 273.884 228.372 C 273.948 227.202, 273.212 225.627, 272.250 224.872 C 270.728 223.679, 270.649 223.695, 271.642 225 M 100 225.313 C 100 225.485, 101.463 226.948, 103.250 228.563 L 106.500 231.500 103.563 228.250 C 100.825 225.221, 100 224.540, 100 225.313 M 339.086 227 C 339.116 227.825, 339.527 229.400, 340 230.500 L 340.859 232.500 340.914 230.500 C 340.945 229.400, 340.533 227.825, 340 227 C 339.138 225.667, 339.037 225.667, 339.086 227 M 20.500 229 C 20.125 230.183, 20.042 231.376, 20.317 231.651 C 20.592 231.926, 21.125 231.183, 21.500 230 C 21.875 228.817, 21.958 227.624, 21.683 227.349 C 21.408 227.074, 20.875 227.817, 20.500 229 M 120.500 228 L 115.500 228.686 120.191 228.843 C 122.771 228.929, 125.160 228.550, 125.500 228 C 125.840 227.450, 125.979 227.071, 125.809 227.157 C 125.639 227.244, 123.250 227.623, 120.500 228 M 186 229.833 C 186 230.534, 184.103 231.070, 181.250 231.175 L 176.500 231.349 180.886 231.739 C 185.050 232.109, 188.160 230.827, 186.683 229.350 C 186.308 228.974, 186 229.192, 186 229.833 M 282 229.833 C 282 230.534, 280.103 231.070, 277.250 231.175 L 272.500 231.349 276.886 231.739 C 281.050 232.109, 284.160 230.827, 282.683 229.350 C 282.308 228.974, 282 229.192, 282 229.833 M 86.782 236.500 C 87.362 237.600, 89.545 240.075, 91.633 242 C 95.242 245.327, 95.213 245.252, 91.045 240.500 C 88.633 237.750, 86.450 235.275, 86.194 235 C 85.938 234.725, 86.203 235.400, 86.782 236.500 M 337.031 236 C 337.031 236.825, 337.467 238.175, 338 239 C 338.862 240.333, 338.969 240.333, 338.969 239 C 338.969 238.175, 338.533 236.825, 338 236 C 337.138 234.667, 337.031 234.667, 337.031 236 M 258.116 237.750 C 257.988 240.229, 258.731 240.523, 261 238.890 C 262.281 237.969, 262.254 237.890, 260.813 238.350 C 259.757 238.688, 258.958 238.255, 258.679 237.195 C 258.360 235.986, 258.199 236.146, 258.116 237.750 M 271.750 237.732 C 276.428 238.154, 276.457 238.186, 274.945 241.316 C 273.926 243.426, 273.943 243.434, 275.445 241.559 C 278.221 238.094, 277.413 236.985, 272.250 237.175 L 267.500 237.349 271.750 237.732 M 178.500 241 C 177.647 242.650, 177.174 244, 177.449 244 C 177.724 244, 178.647 242.650, 179.500 241 C 180.353 239.350, 180.826 238, 180.551 238 C 180.276 238, 179.353 239.350, 178.500 241 M 202.272 243 C 202.272 245.475, 202.467 246.488, 202.706 245.250 C 202.944 244.012, 202.944 241.988, 202.706 240.750 C 202.467 239.512, 202.272 240.525, 202.272 243 M 162.557 244.223 C 161.701 245.445, 161.039 247.357, 161.086 248.473 C 161.147 249.902, 161.436 249.615, 162.066 247.501 C 162.558 245.852, 163.730 243.939, 164.671 243.251 C 165.612 242.563, 165.872 242, 165.248 242 C 164.624 242, 163.413 243, 162.557 244.223 M 259 245 C 257.900 246.100, 257.030 247.563, 257.068 248.250 C 257.105 248.938, 257.626 248.482, 258.226 247.238 C 258.826 245.993, 260.708 244.571, 262.408 244.078 C 264.890 243.357, 265.056 243.163, 263.250 243.090 C 262.012 243.041, 260.100 243.900, 259 245 M 223.232 250 C 223.232 251.925, 223.438 252.713, 223.689 251.750 C 223.941 250.787, 223.941 249.213, 223.689 248.250 C 223.438 247.287, 223.232 248.075, 223.232 250 M 140.272 252 C 140.272 254.475, 140.467 255.488, 140.706 254.250 C 140.944 253.012, 140.944 250.988, 140.706 249.750 C 140.467 248.512, 140.272 249.525, 140.272 252 M 236.286 252.500 C 236.294 255.250, 236.488 256.256, 236.718 254.736 C 236.947 253.216, 236.941 250.966, 236.704 249.736 C 236.467 248.506, 236.279 249.750, 236.286 252.500 M 28.605 256.586 C 28.271 257.458, 28.380 258.857, 28.849 259.695 C 29.599 261.034, 29.779 261.018, 30.340 259.558 C 30.748 258.493, 30.584 258.139, 29.881 258.573 C 29.150 259.025, 29.010 258.544, 29.460 257.125 C 30.239 254.672, 29.515 254.215, 28.605 256.586 M 133.079 255.952 C 133.036 256.751, 131.546 259.001, 129.769 260.952 L 126.538 264.500 130.390 260.863 C 132.570 258.804, 134.006 256.634, 133.700 255.863 C 133.264 254.767, 133.142 254.785, 133.079 255.952 M 165.250 256.716 C 166.762 256.945, 169.238 256.945, 170.750 256.716 C 172.262 256.487, 171.025 256.300, 168 256.300 C 164.975 256.300, 163.738 256.487, 165.250 256.716 M 80.629 258.791 C 80.360 259.226, 81.684 259.402, 83.570 259.182 C 85.457 258.961, 87 258.605, 87 258.391 C 87 257.638, 81.113 258.008, 80.629 258.791 M 141.321 260.500 C 141.519 262.433, 142.272 262.501, 163.764 262.529 L 186.001 262.559 164.070 262.260 C 144.292 261.991, 142.089 261.792, 141.627 260.231 C 141.238 258.917, 141.164 258.981, 141.321 260.500 M 237.015 261.250 C 237.002 262.817, 238.071 262.978, 247.250 262.792 L 257.500 262.585 248.034 262.252 C 242.052 262.042, 238.285 261.474, 237.799 260.710 C 237.272 259.880, 237.026 260.050, 237.015 261.250 M 199.998 262.250 C 199.999 262.663, 205.063 262.924, 211.250 262.832 C 222.796 262.659, 221.446 262.250, 207.748 261.771 C 203.484 261.622, 199.996 261.837, 199.998 262.250 M 112 263.833 C 112 264.475, 110.537 265.067, 108.750 265.150 C 105.554 265.297, 105.547 265.307, 108.372 265.728 C 111.238 266.156, 113.978 264.644, 112.683 263.350 C 112.308 262.974, 112 263.192, 112 263.833 M 32.521 265.966 C 31.683 267.321, 35.866 275.201, 37.038 274.476 C 37.567 274.149, 38 273.657, 38 273.382 C 38 273.107, 37.474 273.207, 36.830 273.605 C 36.036 274.096, 35.872 273.776, 36.319 272.612 C 36.762 271.456, 36.599 271.130, 35.819 271.612 C 35.038 272.095, 34.875 271.769, 35.319 270.612 C 35.762 269.456, 35.599 269.130, 34.819 269.612 C 34.038 270.095, 33.875 269.769, 34.319 268.612 C 34.762 267.456, 34.599 267.130, 33.819 267.612 C 33.045 268.090, 32.872 267.775, 33.299 266.664 C 33.991 264.859, 33.486 264.405, 32.521 265.966 M 118 268.500 C 115.525 269.825, 113.855 270.930, 114.290 270.955 C 115.352 271.016, 123 267.086, 123 266.480 C 123 265.817, 123.041 265.800, 118 268.500 M 81.750 267.706 C 82.987 267.944, 85.013 267.944, 86.250 267.706 C 87.487 267.467, 86.475 267.272, 84 267.272 C 81.525 267.272, 80.513 267.467, 81.750 267.706 M 321.170 276.750 C 320.675 277.712, 320.493 279.125, 320.765 279.889 C 321.096 280.820, 320.835 281.016, 319.975 280.485 C 319.080 279.931, 318.936 280.087, 319.498 280.997 C 320.609 282.794, 323.095 279.412, 322.261 277.239 C 321.832 276.121, 322.039 275.906, 322.985 276.490 C 323.866 277.035, 324.070 276.923, 323.595 276.155 C 322.632 274.595, 322.227 274.695, 321.170 276.750 M 41.601 282.836 C 41.306 283.314, 41.656 284.515, 42.379 285.504 C 43.410 286.913, 43.870 287.020, 44.502 285.997 C 45.072 285.074, 44.921 284.931, 43.985 285.510 C 43.028 286.101, 42.834 285.875, 43.286 284.696 C 43.952 282.961, 42.509 281.368, 41.601 282.836 M 315.708 285.625 C 315.395 285.939, 315.387 286.845, 315.692 287.639 C 315.996 288.432, 315.853 288.951, 315.373 288.791 C 314.893 288.631, 314.387 288.837, 314.250 289.250 C 313.725 290.824, 315.559 290.044, 316.809 288.162 C 318.003 286.362, 317.086 284.247, 315.708 285.625 M 44.603 287.834 C 43.907 288.959, 44.550 289.410, 46.373 289.078 C 46.853 288.990, 46.992 289.579, 46.682 290.386 C 46.372 291.193, 46.727 292.359, 47.470 292.975 C 49.861 294.959, 49.956 292.477, 47.602 289.526 C 46.075 287.610, 45.086 287.052, 44.603 287.834 M 311.875 291.441 C 311.806 291.748, 311.637 292.450, 311.500 293 C 311.363 293.550, 311.194 294.477, 311.125 295.059 C 311.056 295.641, 310.601 295.871, 310.113 295.570 C 309.626 295.269, 308.733 295.617, 308.129 296.344 C 307.300 297.343, 307.407 297.667, 308.566 297.667 C 310.560 297.667, 314.396 292.363, 313.018 291.511 C 312.458 291.165, 311.944 291.134, 311.875 291.441 M 49.600 294.838 C 49.282 295.353, 49.652 296.296, 50.422 296.935 C 51.250 297.622, 52.058 297.715, 52.400 297.162 C 52.718 296.647, 52.348 295.704, 51.578 295.065 C 50.750 294.378, 49.942 294.285, 49.600 294.838 M 53.547 301.052 C 54.493 302.098, 55.696 302.688, 56.221 302.364 C 57.420 301.623, 55.622 299.709, 53.424 299.386 C 52.019 299.180, 52.034 299.380, 53.547 301.052 M 304.569 300.924 C 303.634 301.957, 303.289 303.061, 303.801 303.377 C 304.314 303.694, 305.497 303.108, 306.431 302.076 C 307.366 301.043, 307.711 299.939, 307.199 299.623 C 306.686 299.306, 305.503 299.892, 304.569 300.924 M 64.115 312.616 C 68.647 317.171, 72.772 320.641, 73.281 320.326 C 74.494 319.577, 59.334 304.333, 57.377 304.333 C 56.551 304.333, 59.584 308.061, 64.115 312.616 M 58 305.275 C 58 305.426, 61.487 308.914, 65.750 313.025 L 73.500 320.500 66.025 312.750 C 59.082 305.552, 58 304.544, 58 305.275 M 294.621 311.878 C 290.867 315.661, 288.214 319.015, 288.726 319.331 C 289.861 320.032, 301.284 308.676, 301.598 306.532 C 301.722 305.690, 301.738 305, 301.635 305 C 301.531 305, 298.375 308.095, 294.621 311.878 M 306.437 309.250 L 303.500 312.500 306.750 309.563 C 309.779 306.825, 310.460 306, 309.687 306 C 309.515 306, 308.052 307.462, 306.437 309.250 M 294.469 313.250 L 288.500 319.500 294.750 313.531 C 300.556 307.987, 301.458 307, 300.719 307 C 300.564 307, 297.751 309.813, 294.469 313.250 M 59 315.313 C 59 315.485, 60.462 316.948, 62.250 318.563 L 65.500 321.500 62.563 318.250 C 59.825 315.221, 59 314.540, 59 315.313 M 283.778 321.768 C 281.186 324.891, 282.194 326.188, 285.071 323.432 C 286.682 321.889, 288 320.560, 288 320.480 C 288 319.659, 284.690 320.669, 283.778 321.768 M 291.946 323.750 L 288.500 327.500 292.250 324.054 C 294.313 322.158, 296 320.471, 296 320.304 C 296 319.540, 295.154 320.260, 291.946 323.750 M 75.623 321.801 C 75.306 322.314, 75.892 323.497, 76.924 324.431 C 77.957 325.366, 79.061 325.711, 79.377 325.199 C 79.694 324.686, 79.108 323.503, 78.076 322.569 C 77.043 321.634, 75.939 321.289, 75.623 321.801 M 80.600 325.838 C 80.282 326.353, 80.652 327.296, 81.422 327.935 C 82.250 328.622, 83.058 328.715, 83.400 328.162 C 83.718 327.647, 83.348 326.704, 82.578 326.065 C 81.750 325.378, 80.942 325.285, 80.600 325.838 M 278.065 326.422 C 277.378 327.250, 277.285 328.058, 277.838 328.400 C 278.353 328.718, 279.296 328.348, 279.935 327.578 C 280.622 326.750, 280.715 325.942, 280.162 325.600 C 279.647 325.282, 278.704 325.652, 278.065 326.422 M 85.426 329.694 C 85.571 330.687, 86.023 331.425, 86.429 331.333 C 87.947 330.990, 88.005 330.249, 86.604 329.087 C 85.430 328.112, 85.210 328.226, 85.426 329.694 M 270.271 331.753 C 267.395 333.681, 265.296 335.670, 265.607 336.173 C 266.355 337.383, 272.584 333.335, 272.209 331.882 C 272.048 331.257, 272.572 331.005, 273.386 331.318 C 274.948 331.917, 277.650 329.500, 276.299 328.713 C 275.859 328.457, 273.147 329.825, 270.271 331.753 M 79 332.364 C 79 332.639, 80.350 333.825, 82 335 C 83.650 336.175, 85 336.911, 85 336.636 C 85 336.361, 83.650 335.175, 82 334 C 80.350 332.825, 79 332.089, 79 332.364 M 91.659 333.675 C 90.566 334.768, 92.030 335.926, 93.696 335.286 C 94.753 334.881, 95.084 335.054, 94.636 335.780 C 93.895 336.979, 97.329 339.338, 98.341 338.325 C 99.434 337.232, 97.970 336.074, 96.304 336.714 C 95.247 337.119, 94.916 336.946, 95.364 336.220 C 96.105 335.021, 92.671 332.662, 91.659 333.675 M 261.496 337.379 C 260.087 338.410, 259.980 338.870, 261.003 339.502 C 261.926 340.072, 262.069 339.921, 261.490 338.985 C 260.899 338.028, 261.125 337.834, 262.304 338.286 C 263.202 338.631, 264.183 338.513, 264.484 338.025 C 265.447 336.467, 263.360 336.016, 261.496 337.379 M 268.250 341.115 C 264.841 343.298, 263.738 344.764, 266.750 343.108 C 269.044 341.847, 272.639 339.068, 272 339.049 C 271.725 339.040, 270.038 339.970, 268.250 341.115 M 104.333 341.594 C 104.333 342.999, 105.305 343.401, 107.850 343.052 C 108.593 342.950, 108.945 343.281, 108.632 343.787 C 107.715 345.269, 113.084 347.318, 114.402 345.989 C 115.203 345.181, 114.982 345.079, 113.586 345.611 C 112.406 346.060, 111.908 345.959, 112.287 345.345 C 112.625 344.798, 110.974 343.414, 108.617 342.269 C 105.257 340.637, 104.333 340.491, 104.333 341.594 M 256.541 341.067 C 256.904 341.654, 256.593 342.050, 255.850 341.948 C 253.105 341.571, 251.898 342.026, 252.605 343.170 C 253.096 343.964, 252.776 344.128, 251.612 343.681 C 250.456 343.238, 250.130 343.401, 250.612 344.181 C 251.095 344.962, 250.769 345.125, 249.612 344.681 C 248.456 344.238, 248.130 344.401, 248.612 345.181 C 249.109 345.985, 248.741 346.116, 247.414 345.611 C 245.987 345.067, 245.787 345.171, 246.628 346.019 C 247.471 346.868, 249.065 346.494, 252.915 344.543 C 255.753 343.105, 257.806 341.495, 257.478 340.964 C 257.150 340.434, 256.657 340, 256.382 340 C 256.107 340, 256.179 340.480, 256.541 341.067 M 241.612 348.181 C 242.109 348.985, 241.741 349.116, 240.414 348.611 C 238.962 348.058, 238.779 348.162, 239.654 349.044 C 240.427 349.824, 241.369 349.893, 242.513 349.253 C 244.091 348.369, 244.095 348.250, 242.558 347.660 C 241.449 347.235, 241.134 347.408, 241.612 348.181 M 138 355 C 136.667 355.862, 136.667 355.969, 138 355.969 C 138.825 355.969, 140.175 355.533, 141 355 C 142.333 354.138, 142.333 354.031, 141 354.031 C 140.175 354.031, 138.825 354.467, 138 355 M 217 354.896 C 214.802 355.508, 214.722 355.677, 216.332 356.296 C 218.949 357.302, 220.220 357.166, 219.475 355.960 C 219.057 355.283, 219.823 355.137, 221.666 355.541 C 223.836 356.016, 224.148 355.912, 223 355.096 C 221.331 353.911, 220.621 353.887, 217 354.896 M 142 356 C 140.667 356.862, 140.667 356.969, 142 356.969 C 142.825 356.969, 144.175 356.533, 145 356 C 146.333 355.138, 146.333 355.031, 145 355.031 C 144.175 355.031, 142.825 355.467, 142 356 M 146 357 C 144.667 357.862, 144.667 357.963, 146 357.914 C 146.825 357.884, 148.400 357.473, 149.500 357 L 151.500 356.141 149.500 356.086 C 148.400 356.055, 146.825 356.467, 146 357 M 211 357 C 212.970 358.273, 215.287 358.273, 214.500 357 C 214.160 356.450, 212.896 356.007, 211.691 356.015 C 209.910 356.028, 209.781 356.212, 211 357 M 151.500 358 L 149.500 358.859 151.500 358.859 C 152.600 358.859, 154.400 358.473, 155.500 358 L 157.500 357.141 155.500 357.141 C 154.400 357.141, 152.600 357.527, 151.500 358 M 205 358 C 205.825 358.533, 207.625 358.945, 209 358.914 C 211.290 358.864, 211.332 358.787, 209.500 358 C 208.400 357.527, 206.600 357.116, 205.500 357.086 C 203.849 357.040, 203.762 357.200, 205 358 M 157.654 359.334 C 156.997 359.809, 157.882 359.931, 159.711 359.617 C 161.477 359.314, 163.191 359.501, 163.520 360.033 C 164.385 361.431, 196 361.314, 196 359.912 C 196 359.189, 197.424 359.059, 200.250 359.526 C 202.588 359.913, 204.188 359.902, 203.806 359.503 C 202.826 358.480, 159.057 358.320, 157.654 359.334 M 163.762 365.707 C 165.006 365.946, 166.806 365.937, 167.762 365.687 C 168.718 365.437, 167.700 365.241, 165.500 365.252 C 163.300 365.263, 162.518 365.468, 163.762 365.707 M 193.762 365.707 C 195.006 365.946, 196.806 365.937, 197.762 365.687 C 198.718 365.437, 197.700 365.241, 195.500 365.252 C 193.300 365.263, 192.518 365.468, 193.762 365.707" stroke="none" fill="#fc7c7c" fill-rule="evenodd"/><path d="M 162.352 31.025 C 121.661 35.311, 79.996 56.931, 53.946 87.278 C 9.144 139.468, -0.288 210.487, 29.469 271.585 C 49.202 312.104, 84.232 342.857, 126.712 356.956 C 142.032 362.040, 150.484 363.764, 167.171 365.207 C 196.326 367.729, 225.688 362.326, 252.916 349.429 C 293.833 330.049, 325.771 293.899, 339.876 251 C 359.352 191.766, 344.995 127.265, 302.338 82.353 C 266.603 44.730, 214.301 25.552, 162.352 31.025 M 161.500 35.689 C 97.599 43.980, 44.200 87.721, 25.069 147.444 C 18.941 166.575, 17.625 175.508, 17.625 198 C 17.625 220.492, 18.941 229.425, 25.069 248.556 C 35.557 281.298, 57.270 310.626, 86.500 331.532 C 103.678 343.818, 129.354 354.647, 150.675 358.600 C 162.637 360.817, 187.594 361.546, 199.762 360.034 C 247.570 354.092, 289.274 328.567, 316.367 288.668 C 327.666 272.028, 337.719 246.994, 341.659 225.686 C 344.006 212.992, 344.006 183.008, 341.659 170.314 C 334.784 133.129, 315.495 98.998, 287.788 74.989 C 263.662 54.083, 236.142 41.495, 203.500 36.432 C 195.311 35.162, 169.132 34.699, 161.500 35.689 M 160 38.020 C 121.921 43.305, 89.266 60.055, 62.820 87.868 C 2.477 151.332, 4.867 252.468, 68.154 313.556 C 91.144 335.747, 116.547 349.101, 149.227 356.177 C 158.013 358.079, 162.540 358.401, 180.500 358.401 C 198.460 358.401, 202.987 358.079, 211.773 356.177 C 234.383 351.282, 251.972 343.910, 270.465 331.578 C 318.808 299.340, 346.393 242.082, 341.201 184.750 C 334.649 112.400, 283.714 55.196, 212.288 39.970 C 201.133 37.592, 171.141 36.474, 160 38.020 M 145.512 124.237 C 144.891 126.042, 141 141.718, 141 142.417 C 141 142.737, 142.125 143, 143.500 143 C 145.110 143, 146 142.438, 146 141.423 C 146 140.556, 147.315 138.531, 148.923 136.923 C 151.724 134.122, 152.224 134, 160.923 134 L 170 134 170 164.378 C 170 187.512, 169.701 195.003, 168.746 195.796 C 168.056 196.368, 165.919 196.986, 163.996 197.168 C 161.256 197.428, 160.431 197.987, 160.180 199.750 L 159.861 202 179.930 202 L 200 202 200 199.500 C 200 197.338, 199.553 197, 196.700 197 C 194.885 197, 192.860 196.460, 192.200 195.800 C 191.319 194.919, 191 186.533, 191 164.300 L 191 134 199.865 134 C 209.653 134, 213.173 135.570, 214.407 140.484 C 214.869 142.326, 215.703 143, 217.519 143 C 218.884 143, 219.982 142.887, 219.959 142.750 C 219.937 142.613, 218.873 138.225, 217.595 133 L 215.272 123.500 180.610 123.237 C 153.397 123.031, 145.854 123.245, 145.512 124.237 M 100 215.584 C 98.625 215.827, 95.649 216.264, 93.387 216.554 C 89.696 217.027, 89.003 217.579, 86.637 221.926 C 83.496 227.696, 83.374 229.866, 85.912 234.790 C 88.138 239.109, 92.136 243.014, 100.500 249.043 C 107.327 253.964, 109.826 256.502, 111.106 259.815 C 113.556 266.159, 110.852 266.469, 96.500 261.488 C 82.748 256.716, 81.638 256.807, 78.517 262.967 C 75.427 269.064, 75.294 270.448, 77.934 269.035 C 81.021 267.383, 86.415 267.815, 97.076 270.568 C 106.599 273.027, 107.244 273.071, 112.307 271.599 C 118.041 269.932, 128.087 263.826, 131.853 259.719 C 133.988 257.389, 134.096 256.822, 133.023 253.570 C 131.155 247.909, 122.967 239.756, 114.887 235.510 C 107.916 231.847, 100 225.665, 100 223.884 C 100 223.398, 103.344 223, 107.430 223 L 114.860 223 114 226 L 113.140 229 119.121 229 C 124.925 229, 125.142 228.904, 126.452 225.750 C 129.016 219.580, 128.820 217.750, 125.500 216.849 C 121.897 215.871, 103.523 214.960, 100 215.584 M 140.436 220.492 C 139.562 225.148, 140.317 260.160, 141.325 261.750 C 141.920 262.688, 147.588 263, 164.020 263 L 185.923 263 187.461 257.818 C 189.968 249.378, 189.806 248.994, 183.750 249.039 C 178.943 249.074, 178.330 249.348, 176.484 252.289 C 174.579 255.323, 174.096 255.516, 167.734 255.796 C 161.290 256.079, 161 255.992, 161.006 253.796 C 161.016 249.692, 163.045 244.046, 164.859 243.075 C 165.953 242.490, 168.136 242.476, 170.565 243.040 C 176.960 244.523, 177.831 244.251, 179.939 240.120 L 181.918 236.241 176.209 235.741 C 172.880 235.449, 168.936 235.767, 166.750 236.504 C 164.688 237.198, 163.020 237.481, 163.044 237.133 C 163.068 236.785, 163.646 233.800, 164.329 230.500 L 165.572 224.500 169.860 224.189 C 174.968 223.818, 177 225.223, 177 229.122 C 177 231.869, 177.207 232, 181.525 232 C 186.676 232, 187.404 230.974, 188.589 222.039 L 189.258 217 165.174 217 L 141.091 217 140.436 220.492 M 200.872 217.461 C 200.618 217.715, 200.805 222.102, 201.286 227.211 C 202.180 236.708, 201.657 258.123, 200.454 261.258 C 199.844 262.849, 200.744 263, 210.874 263 C 221.555 263, 221.981 262.917, 222.471 260.750 C 223.589 255.808, 225 237.201, 225 227.394 L 225 217 213.167 217 C 206.658 217, 201.126 217.208, 200.872 217.461 M 236.630 219.250 C 235.827 222.249, 235.831 252.487, 236.636 258.360 L 237.272 263 247.136 263 L 257 263 257 256.547 C 257 244.514, 259.911 242.258, 271.147 245.582 C 272.769 246.062, 277 240.676, 277 238.132 C 277 236.713, 265.201 236.593, 261.565 237.975 C 258.519 239.133, 258.410 238.406, 260.363 230 L 261.641 224.500 265.894 224.189 C 270.987 223.816, 273 225.229, 273 229.177 C 273 232.047, 273.100 232.103, 277.690 231.805 L 282.379 231.500 283.670 226.500 C 284.380 223.750, 284.970 220.488, 284.981 219.250 L 285 217 261.117 217 L 237.233 217 236.630 219.250" stroke="none" fill="#fc0505" fill-rule="evenodd"/></svg>